<svg width="116" height="68" viewBox="0 0 116 68" fill="none" xmlns="http://www.w3.org/2000/svg">
<rect x="85.7458" y="1.05713" width="30" height="65.942" fill="#C80606"/>
<rect width="15" height="65.942" transform="matrix(1 2.76747e-05 2.72793e-05 1 100.746 1.05762)" fill="black"/>
<rect width="30" height="65.942" transform="matrix(-1 1.16415e-10 1.16415e-10 1 31.1244 1.05811)" fill="#C80606"/>
<rect width="15" height="65.942" transform="matrix(-1 2.76748e-05 -2.72792e-05 1 16.1243 1.05859)" fill="black"/>
<rect width="33" height="65.9614" transform="matrix(1 0 3.74738e-05 -1 41.9318 66.9858)" fill="#C80606"/>
<rect width="10" height="65.9804" transform="matrix(0.999998 -0.00195514 -0.00186464 -0.999998 64.996 66.9878)" fill="black"/>
<rect width="10" height="65.9503" transform="matrix(0.999998 -0.00195514 -0.00186464 -0.999998 41.9957 67.0073)" fill="black"/>
</svg>
