<svg width="39" height="39" viewBox="0 0 39 39" fill="none" xmlns="http://www.w3.org/2000/svg">
<path d="M19.1667 38.3333C10.1314 38.3333 5.61378 38.3333 2.8069 35.5264C-2.28484e-07 32.7196 0 28.2018 0 19.1667C0 10.1314 -2.28484e-07 5.61378 2.8069 2.8069C5.61378 -2.28484e-07 10.1314 0 19.1667 0C28.2018 0 32.7196 -2.28484e-07 35.5264 2.8069C38.3333 5.61378 38.3333 10.1314 38.3333 19.1667C38.3333 28.2018 38.3333 32.7196 35.5264 35.5264C32.7196 38.3333 28.2018 38.3333 19.1667 38.3333Z" fill="#C60303"/>
<path d="M19.1667 11.9792C19.9605 11.9792 20.6042 12.6228 20.6042 13.4167V17.7292H24.9167C25.7105 17.7292 26.3542 18.3729 26.3542 19.1667C26.3542 19.9606 25.7105 20.6042 24.9167 20.6042H20.6042V24.9167C20.6042 25.7106 19.9605 26.3542 19.1667 26.3542C18.3728 26.3542 17.7292 25.7106 17.7292 24.9167V20.6042H13.4167C12.6228 20.6042 11.9792 19.9606 11.9792 19.1667C11.9792 18.3729 12.6228 17.7292 13.4167 17.7292H17.7292V13.4167C17.7292 12.6228 18.3728 11.9792 19.1667 11.9792Z" fill="white"/>
</svg>
