<svg width="114" height="17" viewBox="0 0 114 17" fill="none" xmlns="http://www.w3.org/2000/svg">
<path d="M7.48495 0.900234C7.96346 0.899321 8.39428 0.980529 8.77741 1.14386C9.17418 1.29349 9.53681 1.4637 9.8653 1.65448C10.2075 1.84523 10.5291 2.02235 10.8302 2.18584C11.1313 2.33566 11.439 2.41026 11.7535 2.40966C11.9995 2.39552 12.2797 2.36081 12.5941 2.30552C12.8674 2.25031 13.1817 2.16768 13.537 2.05762C13.9059 1.93387 14.3157 1.75536 14.7664 1.52207C14.3161 1.96043 13.9477 2.33028 13.6611 2.63161C13.3882 2.91924 13.1768 3.1589 13.0267 3.35059C12.8494 3.56968 12.7199 3.74083 12.6381 3.86403C12.5563 4.01458 12.4337 4.2404 12.2702 4.54149C12.1204 4.81522 11.916 5.18475 11.6571 5.65009C11.3982 6.10176 11.0712 6.69711 10.6761 7.43614C10.6743 6.49279 10.5772 5.76153 10.3848 5.24236C10.2061 4.72317 10.0071 4.32706 9.78785 4.05405C9.52748 3.74009 9.23316 3.54241 8.90488 3.461C8.60402 3.42056 8.30334 3.47582 8.00285 3.62679C7.70233 3.76408 7.40194 3.96973 7.10168 4.24375C6.8151 4.51773 6.53545 4.84639 6.26274 5.22972C6.00368 5.59936 5.76517 5.98947 5.5472 6.40004C5.34291 6.81059 5.17281 7.2279 5.0369 7.65199C4.90096 8.06241 4.81283 8.44539 4.77249 8.80094C4.73208 9.11547 4.72595 9.48462 4.7541 9.9084C4.78223 10.3185 4.84456 10.7422 4.9411 11.1795C5.03761 11.6032 5.16145 12.0199 5.31263 12.4298C5.4638 12.8397 5.64907 13.2084 5.86845 13.5362C6.10147 13.8502 6.36173 14.1094 6.64923 14.314C6.93671 14.5048 7.265 14.5931 7.63412 14.5787C8.04422 14.5506 8.4473 14.4267 8.84337 14.2072C9.18483 14.0288 9.53294 13.7547 9.8877 13.3849C10.2424 13.0014 10.549 12.4608 10.8075 11.763L13.8437 12.311C12.9707 13.379 12.1177 14.1805 11.2848 14.7153C10.4655 15.25 9.72792 15.6274 9.07209 15.8474C8.30693 16.095 7.58255 16.2126 6.89893 16.2002C6.03742 16.1062 5.23029 15.8479 4.47752 15.4255C3.72476 15.0031 3.07437 14.4917 2.52635 13.8912C1.99197 13.277 1.5737 12.6078 1.27154 11.8838C0.969372 11.1598 0.838132 10.4491 0.877816 9.75173C0.904272 9.28684 0.998943 8.74662 1.16183 8.13107C1.32469 7.50185 1.54221 6.85886 1.8144 6.20209C2.10025 5.54529 2.44082 4.90206 2.83611 4.2724C3.23139 3.64274 3.66782 3.08136 4.14539 2.58826C4.62294 2.08148 5.1417 1.67717 5.70167 1.37532C6.27529 1.05977 6.86971 0.901409 7.48495 0.900234ZM12.9814 1.07431C13.419 1.14183 13.8156 1.2026 14.1712 1.25661C14.5267 1.29694 14.8344 1.33054 15.0942 1.35738C15.3951 1.39783 15.6618 1.4315 15.8942 1.4584C16.1814 1.49886 16.612 1.45019 17.1859 1.31237C17.7599 1.16089 18.3885 1.02297 19.0719 0.898616C19.7689 0.760565 20.4797 0.684013 21.2043 0.668957C21.9288 0.64023 22.5921 0.768846 23.1943 1.05481C23.7964 1.34077 24.2891 1.62694 24.6725 1.91331C25.0558 2.19969 25.3572 2.50673 25.5766 2.83444C25.8096 3.14845 25.9743 3.4831 26.0707 3.83838C26.1671 4.19367 26.2225 4.58321 26.237 5.00701C26.2245 5.63594 26.0753 6.24463 25.7893 6.83306C25.6667 7.07939 25.5031 7.33947 25.2986 7.6133C25.1077 7.87343 24.8689 8.12682 24.5823 8.37346C24.2956 8.6201 23.9543 8.85317 23.5582 9.07268C23.1758 9.29216 22.725 9.48443 22.2058 9.64948C22.7119 9.79891 23.1293 9.97584 23.4578 10.1803C23.8 10.3847 24.0738 10.5756 24.2792 10.7529C24.5257 10.9712 24.7107 11.1828 24.8341 11.3876C24.985 11.6745 25.0881 11.9203 25.1431 12.1253C25.1982 12.3303 25.2328 12.5285 25.2468 12.7199C25.2745 12.8975 25.309 13.082 25.3504 13.2734C25.3918 13.4647 25.4811 13.6833 25.6183 13.9291C25.728 14.1203 25.8583 14.3183 26.009 14.5231C26.1461 14.7006 26.3037 14.8917 26.4818 15.0964C26.6736 15.3011 26.9064 15.4989 27.1802 15.6898C26.7974 15.7042 26.442 15.7117 26.1139 15.7123C25.7994 15.7129 25.526 15.7135 25.2935 15.7139C25.0201 15.7144 24.7603 15.7081 24.5142 15.6949C24.2681 15.6817 23.9605 15.6754 23.5913 15.6761C23.2769 15.6767 22.8735 15.6775 22.3814 15.6785C21.9028 15.6794 21.3218 15.6873 20.6382 15.7023C20.9386 15.4693 21.1842 15.2364 21.3752 15.0036C21.5661 14.7708 21.7161 14.5586 21.8251 14.367C21.9478 14.148 22.0362 13.9359 22.0905 13.7308C22.1582 13.3615 22.1643 12.9787 22.1088 12.5823C22.0672 12.2406 21.9571 11.8648 21.7786 11.455C21.6 11.0315 21.3121 10.6082 20.9148 10.1852C20.5185 10.2543 20.1836 10.3096 19.9102 10.3511C19.6505 10.379 19.425 10.4067 19.2336 10.4345C19.0149 10.4622 18.8373 10.4831 18.7006 10.497C18.5775 10.5109 18.4408 10.5248 18.2905 10.5388C18.1675 10.5527 18.0308 10.5735 17.8804 10.6011C17.7438 10.615 17.6139 10.6358 17.4909 10.6634C17.4647 11.2513 17.4657 11.764 17.4939 12.2015C17.522 12.6252 17.5569 12.9806 17.5984 13.2677C17.6538 13.6094 17.7159 13.9032 17.7847 14.1491C17.8535 14.3951 17.9497 14.6342 18.0732 14.8664C18.1692 15.0576 18.2927 15.2624 18.4435 15.4809C18.5943 15.6857 18.7655 15.8563 18.9571 15.9926C18.6017 15.9933 18.2599 15.9939 17.9318 15.9946C17.6173 15.9952 17.3302 15.9889 17.0704 15.9757C16.7696 15.9763 16.4825 15.97 16.209 15.9568C15.9356 15.9437 15.6279 15.9374 15.2861 15.9381C14.999 15.9386 14.6572 15.9393 14.2608 15.9401C13.8779 15.9408 13.461 15.9484 13.0098 15.963C13.3646 15.5931 13.6443 15.2781 13.8488 15.018C14.0534 14.7578 14.2102 14.5388 14.3193 14.3608C14.4419 14.1692 14.5168 14.005 14.5439 13.8682C14.5708 13.6494 14.5906 13.2597 14.6032 12.6992C14.6294 12.1249 14.6487 11.4686 14.661 10.7303C14.6732 9.99199 14.6786 9.21952 14.677 8.41288C14.6755 7.60624 14.6672 6.8543 14.6522 6.15706C14.6372 5.44615 14.6224 4.83778 14.6077 4.33195C14.5931 3.82612 14.5788 3.50486 14.5649 3.36816C14.5234 3.12215 14.434 2.87623 14.2969 2.63039C14.1871 2.41185 14.0294 2.16606 13.8238 1.89301C13.6182 1.61997 13.3374 1.34707 12.9814 1.07431ZM20.7471 8.27824C20.8837 8.19595 20.9997 8.1137 21.0953 8.03148C21.1908 7.94927 21.2726 7.81923 21.3406 7.64137C21.4086 7.44983 21.4628 7.18312 21.5032 6.84125C21.5572 6.49935 21.6178 6.03439 21.6851 5.44637C21.7386 4.85837 21.6967 4.3731 21.5592 3.99055C21.4355 3.60797 21.264 3.30752 21.0448 3.08919C20.8393 2.85716 20.6066 2.70038 20.3467 2.61884C20.1004 2.52361 19.8815 2.47617 19.6901 2.47654C19.3073 2.47727 18.9316 2.5942 18.5629 2.82733C18.1942 3.06045 17.9145 3.37544 17.7238 3.77229C17.6558 3.95015 17.5949 4.24422 17.541 4.65448C17.5006 5.01002 17.4742 5.50226 17.4618 6.13119C17.4493 6.76012 17.4714 7.58723 17.528 8.61252C18.0477 8.69355 18.5058 8.72686 18.9022 8.71243C19.2987 8.68433 19.6335 8.63584 19.9068 8.56696C20.2348 8.49797 20.5149 8.40173 20.7471 8.27824ZM29.6563 2.12938C30.34 2.16909 30.9142 2.20218 31.3791 2.22863C31.8577 2.24139 32.2542 2.2543 32.5687 2.26738C32.9242 2.28037 33.2249 2.27979 33.471 2.26565C33.7171 2.25151 34.052 2.21669 34.4757 2.16119C34.8311 2.1195 35.3026 2.05708 35.8904 1.97392C36.4917 1.87707 37.2366 1.7526 38.125 1.60051C37.8112 1.91557 37.5656 2.20315 37.3884 2.46325C37.2248 2.70966 37.0953 2.92182 36.9999 3.09974C36.891 3.31869 36.8161 3.50341 36.7754 3.65388C36.7483 3.79065 36.7763 4.13239 36.8594 4.67911C36.9425 5.22583 37.0599 5.87502 37.2118 6.62668C37.3636 7.36467 37.5291 8.15733 37.7085 9.00464C37.8878 9.83829 38.067 10.6241 38.2462 11.362C38.4253 12.0863 38.5837 12.7081 38.7214 13.2273C38.8728 13.7329 38.9827 14.0335 39.0513 14.129C39.2569 14.4158 39.3872 14.6069 39.442 14.7025C39.4969 14.7844 39.5927 14.8595 39.7296 14.9276C39.7843 14.9548 39.8733 14.9956 39.9964 15.0501C40.1059 15.1046 40.2496 15.1727 40.4275 15.2543C40.619 15.336 40.8585 15.4313 41.1458 15.5401C40.6126 15.5684 40.1547 15.5898 39.7719 15.6042C39.3891 15.605 39.0746 15.6124 38.8286 15.6265C38.5415 15.6408 38.2954 15.6549 38.0904 15.669C37.8853 15.6694 37.6392 15.6835 37.3522 15.7114C37.1061 15.7392 36.7849 15.7672 36.3884 15.7953C36.0057 15.8233 35.5546 15.8515 35.0351 15.8799C35.3082 15.6879 35.5266 15.5166 35.6904 15.3659C35.8678 15.2015 36.0042 15.0645 36.0997 14.955C36.2088 14.8181 36.2838 14.6949 36.3246 14.5854C36.3517 14.4623 36.3719 14.2777 36.3851 14.0316C36.3983 13.8128 36.3978 13.5257 36.3834 13.1703C36.3691 12.8012 36.334 12.3227 36.2782 11.7349L30.8857 12.2989C30.7494 12.5316 30.6472 12.7369 30.5792 12.9147C30.5112 13.0789 30.4636 13.2226 30.4365 13.3457C30.3958 13.4962 30.3823 13.6192 30.3962 13.7149C30.4237 13.8242 30.4718 13.954 30.5405 14.1043C30.6091 14.2409 30.7051 14.4047 30.8285 14.5959C30.9656 14.7734 31.1642 14.9849 31.4245 15.2305C31.0826 15.2175 30.734 15.2113 30.3785 15.212C30.0231 15.2127 29.695 15.2202 29.3942 15.2344C29.0388 15.2487 28.6901 15.2631 28.3484 15.2774C28.0066 15.2917 27.617 15.313 27.1796 15.3412C26.8105 15.3692 26.3799 15.4042 25.8878 15.4462C25.382 15.4745 24.842 15.5165 24.2679 15.5723C24.623 15.4076 24.9235 15.2429 25.1693 15.0784C25.415 14.9002 25.6198 14.7357 25.7836 14.585C25.9747 14.4206 26.1384 14.2631 26.2749 14.1124C26.3703 13.9755 26.5611 13.6607 26.8473 13.168C27.1334 12.6616 27.4536 12.0662 27.8077 11.382C28.1756 10.6977 28.557 9.96548 28.952 9.18543C29.3606 8.40535 29.7284 7.6732 30.0552 6.98898C30.382 6.29109 30.6475 5.68902 30.8516 5.18277C31.0557 4.67652 31.1576 4.3482 31.1573 4.19781C31.1296 4.02013 31.0609 3.82202 30.9511 3.60347C30.855 3.41225 30.7042 3.19379 30.4987 2.94809C30.3068 2.70236 30.026 2.42946 29.6563 2.12938ZM36.0292 10.2178C35.9462 9.73945 35.8702 9.32944 35.8012 8.98778C35.7322 8.63244 35.6769 8.3386 35.6355 8.10626C35.5803 7.83292 35.5388 7.59374 35.5111 7.38872C35.4697 7.19739 35.4214 6.95139 35.3661 6.65071C35.3109 6.39105 35.2419 6.06989 35.1592 5.68724C35.0901 5.29089 35.0003 4.81938 34.8899 4.27271C34.1136 5.83279 33.5075 7.04391 33.0716 7.90607C32.6494 8.75454 32.343 9.37719 32.1523 9.77404C31.9208 10.2393 31.7914 10.513 31.7642 10.5951L36.0292 10.2178ZM53.3406 0.956222C53.15 1.39409 52.9799 1.77723 52.8301 2.10564C52.6803 2.43405 52.551 2.71457 52.4421 2.9472C52.3195 3.2072 52.2174 3.43982 52.1358 3.64505C52.0677 3.79557 51.9792 4.00082 51.8704 4.26079C51.7614 4.49342 51.6253 4.8013 51.462 5.18443C51.3123 5.55385 51.1149 6.03275 50.87 6.62111C50.746 6.11548 50.5947 5.67144 50.4163 5.28896C50.2378 4.90649 50.0457 4.5719 49.8401 4.28518C49.6345 3.99846 49.4153 3.76646 49.1825 3.58917C48.9634 3.39818 48.7444 3.24137 48.5254 3.11874C48.019 2.84627 47.4855 2.6969 46.9249 2.67063C46.1867 2.71305 45.6059 2.83721 45.1825 3.04309C44.7727 3.23528 44.4723 3.46144 44.2814 3.72157C44.0905 3.96803 43.9884 4.22799 43.9753 4.50146C43.9621 4.76125 43.9967 4.97993 44.0791 5.15751C44.1478 5.32144 44.3874 5.51239 44.7979 5.73036C45.2222 5.9483 45.7285 6.20026 46.317 6.48625C46.9191 6.75853 47.5622 7.07176 48.2465 7.42592C48.9308 7.76641 49.5604 8.14802 50.1354 8.57076C50.7241 8.97979 51.2171 9.43002 51.6146 9.92145C52.0256 10.3992 52.2522 10.9114 52.2943 11.4582C52.3366 12.1554 52.331 12.7843 52.2773 13.345C52.2237 13.9056 52.0332 14.3845 51.7059 14.7816C51.3785 15.1787 50.8664 15.4942 50.1696 15.7279C49.4864 15.9617 48.5365 16.107 47.3198 16.164C46.0621 16.2211 45.0298 16.1547 44.2228 15.9649C43.4158 15.775 42.759 15.5165 42.2525 15.1893C41.7597 14.8622 41.3899 14.5006 41.143 14.1045C40.9099 13.7085 40.7382 13.3328 40.6282 12.9776C40.5181 12.6087 40.4423 12.2944 40.4008 12.0347C40.3593 11.7613 40.2906 11.5974 40.1948 11.5429C40.0853 11.4747 39.9758 11.4134 39.8663 11.3589C39.7705 11.3044 39.6679 11.2568 39.5584 11.216C39.4489 11.1615 39.3395 11.1138 39.23 11.073L45.1959 10.0978C44.8547 10.3719 44.5885 10.6253 44.3976 10.8581C44.2203 11.0908 44.084 11.2962 43.9886 11.4741C43.8796 11.6794 43.8048 11.8709 43.7641 12.0487C43.7371 12.2402 43.7991 12.4793 43.9501 12.7662C44.101 13.053 44.3066 13.3329 44.5669 13.6058C44.8408 13.8651 45.1557 14.0832 45.5115 14.2603C45.8673 14.4373 46.2366 14.5118 46.6194 14.4837C47.0978 14.4418 47.4872 14.3248 47.7876 14.1329C48.088 13.9272 48.3131 13.6739 48.4629 13.3728C48.6264 13.0717 48.7215 12.7434 48.7482 12.3879C48.7748 12.0323 48.74 11.6838 48.6436 11.3422C48.5609 10.9869 48.4236 10.659 48.2316 10.3586C48.0396 10.0445 47.8135 9.78515 47.5534 9.58057C47.3206 9.41695 46.958 9.26042 46.4655 9.11097C45.9867 8.96149 45.4464 8.79846 44.8445 8.62187C44.2563 8.44526 43.6475 8.24135 43.0181 8.01013C42.4024 7.77888 41.8413 7.49284 41.3348 7.15201C40.842 6.81116 40.4447 6.40859 40.1431 5.94432C39.8551 5.48003 39.7446 4.91969 39.8117 4.26331C39.8654 3.70266 40.0422 3.23748 40.3423 2.86777C40.656 2.48435 41.0451 2.18283 41.5095 1.96319C41.9876 1.72986 42.5136 1.55795 43.0876 1.44748C43.6753 1.33698 44.2699 1.27433 44.8714 1.25951C45.4866 1.23099 46.0882 1.23667 46.6762 1.27657C47.2778 1.31643 47.8179 1.36325 48.2966 1.41703C48.7752 1.4708 49.1786 1.52472 49.5068 1.57878C49.8487 1.61914 50.0607 1.64608 50.1427 1.6596C50.4982 1.68626 50.8537 1.67875 51.2091 1.63705C51.5235 1.60911 51.8652 1.54693 52.2341 1.45052C52.6167 1.34042 52.9856 1.17565 53.3406 0.956222ZM52.6032 1.4088C53.0818 1.46258 53.4852 1.50282 53.8134 1.52954C54.1415 1.54258 54.4013 1.55576 54.5928 1.56907C54.8252 1.58229 55.0098 1.58878 55.1465 1.58852C55.3789 1.58807 55.6455 1.58073 55.9463 1.56648C56.206 1.55231 56.5067 1.53123 56.8485 1.50324C57.2039 1.46154 57.5866 1.39929 57.9966 1.31647C57.8056 1.52192 57.6487 1.72046 57.526 1.9121C57.4033 2.09007 57.3079 2.25431 57.2399 2.40483C57.1581 2.56905 57.0901 2.71957 57.0356 2.8564C56.9813 3.03423 56.9203 3.30779 56.8526 3.67706C56.7849 3.99164 56.7105 4.43612 56.6296 5.0105C56.5623 5.58484 56.4749 6.33697 56.3673 7.26686C56.8322 7.27964 57.2355 7.28571 57.5773 7.28506C57.9191 7.27073 58.2062 7.26335 58.4386 7.2629L59.1154 7.26161C59.3067 7.24757 59.5255 7.23349 59.7715 7.21934C60.1817 7.20489 60.8036 7.16269 61.6375 7.09273C61.7047 6.4637 61.7378 5.92359 61.7369 5.47242C61.7497 5.00755 61.7421 4.61792 61.7142 4.30352C61.6862 3.9481 61.6446 3.6474 61.5894 3.40141C61.5482 3.26477 61.4863 3.10083 61.4039 2.90958C61.3352 2.74565 61.2392 2.54759 61.1157 2.3154C61.0058 2.06952 60.8549 1.77586 60.6628 1.43443C61.0184 1.48844 61.3329 1.52885 61.6064 1.55567C61.8935 1.5688 62.1328 1.58201 62.3243 1.59532C62.543 1.60857 62.7276 1.61506 62.878 1.61477C63.0284 1.61448 63.2266 1.60727 63.4727 1.59313C63.6778 1.57906 63.9307 1.57174 64.2314 1.57117C64.5322 1.55692 64.9013 1.53571 65.3388 1.50753C65.2297 1.69914 65.1344 1.89757 65.0528 2.1028C64.9711 2.30804 64.9031 2.49274 64.8488 2.65691C64.7944 2.84842 64.7401 3.03993 64.6858 3.23144C64.618 3.51868 64.5573 3.93578 64.5036 4.48276C64.4636 5.02972 64.4238 5.63819 64.384 6.30819C64.358 6.97816 64.332 7.67548 64.306 8.40014C64.2937 9.12477 64.2814 9.80839 64.2689 10.451C64.2701 11.0936 64.2781 11.6678 64.2927 12.1736C64.3073 12.6658 64.3353 13.0143 64.3767 13.2193C64.4182 13.4654 64.4871 13.7182 64.5833 13.9777C64.6657 14.21 64.7756 14.4627 64.9128 14.7359C65.0501 14.9954 65.2283 15.2412 65.4475 15.4732L60.5058 15.8517C60.7105 15.6599 60.8742 15.4751 60.9969 15.2971C61.1196 15.1055 61.215 14.9412 61.2831 14.8044C61.3512 14.6538 61.3987 14.5102 61.4258 14.3734C61.4392 14.2093 61.4591 13.9222 61.4857 13.512C61.5124 13.1701 61.5388 12.6847 61.5649 12.0558C61.5911 11.4268 61.6168 10.5928 61.6422 9.55367C61.4508 9.55403 61.2184 9.56131 60.945 9.57551C60.6852 9.576 60.4391 9.58331 60.2067 9.59742C59.9333 9.61162 59.6462 9.619 59.3454 9.61958C59.0447 9.63382 58.7303 9.64809 58.4022 9.66239C58.1288 9.69026 57.8212 9.71819 57.4795 9.74619C57.1514 9.76048 56.8233 9.78162 56.4952 9.80959C56.469 10.3839 56.4699 10.8897 56.4981 11.3272C56.5263 11.7509 56.568 12.1132 56.6232 12.4138C56.6786 12.7692 56.7475 13.0767 56.8301 13.3363C56.9126 13.5822 57.0019 13.8282 57.0981 14.0741C57.1805 14.2927 57.2767 14.5249 57.3865 14.7708C57.51 15.0166 57.6335 15.2352 57.7569 15.4263C57.4971 15.3995 57.2578 15.3794 57.039 15.3662C56.8202 15.3393 56.6288 15.3123 56.4647 15.2852C56.2732 15.2719 56.0886 15.2586 55.9109 15.2453C55.7331 15.2456 55.5212 15.2392 55.2751 15.226C55.0563 15.2127 54.7829 15.2064 54.4547 15.2071C54.1266 15.194 53.7438 15.1879 53.3063 15.1887C53.5655 14.9285 53.7701 14.6752 53.92 14.4288C54.0836 14.1687 54.1994 13.9361 54.2673 13.7308C54.3489 13.4846 54.4032 13.2589 54.4301 13.0538C54.4434 12.876 54.4496 12.541 54.4487 12.0489C54.4614 11.5566 54.4604 10.9961 54.4455 10.3672C54.4443 9.72464 54.4362 9.05473 54.4211 8.35749C54.4061 7.64658 54.3843 6.98354 54.3558 6.36836C54.341 5.75315 54.3195 5.22682 54.2913 4.78937C54.2768 4.33823 54.2625 4.05798 54.2487 3.94863C54.1798 3.70267 54.0768 3.43627 53.9395 3.14942C53.816 2.91723 53.6515 2.65094 53.4458 2.35056C53.2401 2.03649 52.9593 1.72258 52.6032 1.4088ZM65.2147 0.974563C66.1309 1.08219 66.924 1.16271 67.5941 1.21611C68.2641 1.25585 68.8178 1.28897 69.2554 1.31548C69.7613 1.34186 70.1851 1.34788 70.5269 1.33356C70.8823 1.31921 71.3676 1.2841 71.9828 1.22824C72.5022 1.18623 73.1857 1.13024 74.0332 1.06026C74.8807 0.976612 75.9401 0.865214 77.2113 0.726068C77.2256 1.04049 77.233 1.3481 77.2336 1.64888C77.2478 1.93596 77.2619 2.18886 77.276 2.40759C77.2902 2.66733 77.2975 2.90657 77.2979 3.12532C77.2984 3.35774 77.2852 3.65171 77.2586 4.00723C77.2318 4.30807 77.1847 4.69097 77.1172 5.15594C77.0634 5.60722 76.9756 6.14743 76.8537 6.77657C76.6609 6.03865 76.4752 5.44428 76.2966 4.99345C76.118 4.52894 75.9532 4.16012 75.8023 3.88697C75.6376 3.57283 75.4731 3.33388 75.3087 3.17013C75.1308 3.04743 74.9187 2.94529 74.6724 2.86373C74.4535 2.79579 74.1732 2.74164 73.8313 2.70128C73.5031 2.66089 73.1134 2.66847 72.6624 2.72402C72.5975 4.52883 72.5524 5.99181 72.5272 7.11295C72.502 8.2341 72.4832 9.10914 72.4707 9.73807C72.4585 10.49 72.4527 11.0301 72.4533 11.3582C72.4678 11.823 72.5439 12.2809 72.6815 12.7318C72.7916 13.1144 72.9701 13.5106 73.217 13.9202C73.4638 14.3299 73.82 14.6916 74.2854 15.0051L71.7835 15.0099C71.5511 15.0103 71.264 15.0246 70.9222 15.0526C70.6352 15.0804 70.2661 15.1085 69.815 15.1367C69.3775 15.1649 68.8649 15.2137 68.2772 15.2832C68.4816 14.9273 68.645 14.6057 68.7675 14.3184C68.89 14.031 68.9852 13.7848 69.0532 13.5796C69.1348 13.3333 69.1959 13.1144 69.2365 12.923C69.2497 12.6495 69.2828 12.0957 69.3359 11.2616C69.3489 10.9198 69.3618 10.496 69.3745 9.99007C69.4009 9.48416 69.4271 8.88255 69.4531 8.18523C69.4928 7.48789 69.5254 6.68802 69.551 5.78563C69.5903 4.86953 69.6293 3.83723 69.6682 2.68872C69.4219 2.62083 69.1895 2.62811 68.9709 2.71056C68.7523 2.77933 68.5611 2.86857 68.3972 2.97825C68.2061 3.11534 68.0218 3.27975 67.8445 3.4715C67.6672 3.70426 67.4695 4.00542 67.2515 4.37498C67.0607 4.68979 66.8427 5.1072 66.5976 5.6272C66.3525 6.13353 66.0734 6.76297 65.7604 7.51552C65.6905 6.72269 65.6414 6.07337 65.6131 5.56756C65.5848 5.04808 65.5635 4.6448 65.5493 4.35772C65.5349 4.01595 65.5276 3.76303 65.5273 3.59897C65.527 3.44858 65.513 3.25036 65.4852 3.00432C65.4574 2.7993 65.4227 2.53276 65.3811 2.20472C65.3394 1.863 65.284 1.45295 65.2147 0.974563ZM76.8852 1.7931C77.3502 1.8469 77.7399 1.88717 78.0544 1.91391C78.3825 1.92696 78.6492 1.94696 78.8543 1.97391C79.1005 2.00078 79.2919 2.01409 79.4286 2.01383C79.579 2.02721 79.8046 2.01995 80.1053 1.99203C80.365 1.96419 80.7136 1.92934 81.151 1.88749C81.6021 1.84561 82.1762 1.78299 82.8733 1.69963C82.5594 1.97367 82.307 2.24075 82.1161 2.50088C81.9388 2.74732 81.8025 2.96633 81.7072 3.15792C81.5846 3.39057 81.5098 3.60947 81.4828 3.8146C81.4288 4.14282 81.3818 4.59409 81.3419 5.16838C81.3156 5.72898 81.2894 6.34427 81.2634 7.01424C81.2373 7.68421 81.2249 8.37467 81.2263 9.0856C81.2277 9.79654 81.2358 10.4733 81.2507 11.1158C81.2792 11.7447 81.3213 12.3052 81.3769 12.7972C81.4462 13.2893 81.5289 13.6446 81.6251 13.8632C81.7623 14.109 81.9063 14.3548 82.0571 14.6006C82.1943 14.8054 82.3587 15.017 82.5505 15.2354C82.7424 15.4538 82.9615 15.6311 83.2078 15.7674C82.4011 15.7279 81.7585 15.7086 81.28 15.7095L80.5417 15.7109C80.3229 15.7114 80.0427 15.7256 79.7009 15.7536C79.4139 15.7815 79.0516 15.8095 78.6142 15.8377C78.1767 15.8659 77.6505 15.9079 77.0353 15.9637C77.3491 15.6213 77.5946 15.2927 77.7717 14.978C77.9489 14.6632 78.0919 14.3894 78.2008 14.1568C78.3233 13.8831 78.4049 13.6232 78.4454 13.3771C78.4994 13.0215 78.5396 12.5839 78.566 12.0643C78.606 11.531 78.6322 10.9636 78.6447 10.362C78.6572 9.74676 78.6561 9.12469 78.6412 8.49581C78.64 7.85324 78.6251 7.23803 78.5966 6.65019C78.5682 6.06235 78.5261 5.52923 78.4705 5.05082C78.4286 4.57238 78.3732 4.18968 78.3043 3.9027C78.2629 3.72504 78.1805 3.52696 78.0571 3.30844C77.9473 3.11724 77.7965 2.89878 77.6046 2.65305C77.4264 2.39363 77.1866 2.10698 76.8852 1.7931ZM89.4955 0.743625C89.9741 0.742711 90.4049 0.82392 90.788 0.987251C91.1848 1.13688 91.5474 1.30709 91.8759 1.49787C92.2181 1.68862 92.5397 1.86574 92.8408 2.02923C93.1418 2.17905 93.4496 2.25366 93.7641 2.25305C94.0101 2.23891 94.2903 2.2042 94.6047 2.14891C94.878 2.0937 95.1923 2.01107 95.5476 1.90102C95.9165 1.77726 96.3263 1.59875 96.777 1.36546C96.3267 1.80382 95.9582 2.17367 95.6717 2.475C95.3988 2.76263 95.1874 3.00229 95.0373 3.19398C94.86 3.41307 94.7305 3.58422 94.6487 3.70742C94.5669 3.85797 94.4443 4.08379 94.2808 4.38488C94.131 4.65861 93.9266 5.02814 93.6677 5.49348C93.4088 5.94515 93.0818 6.5405 92.6867 7.27954C92.6849 6.33618 92.5878 5.60492 92.3954 5.08575C92.2167 4.56656 92.0177 4.17046 91.7984 3.89744C91.5381 3.58348 91.2438 3.3858 90.9155 3.30439C90.6146 3.26395 90.3139 3.31922 90.0134 3.47018C89.7129 3.60747 89.4125 3.81313 89.1123 4.08714C88.8257 4.36112 88.546 4.68978 88.2733 5.07312C88.0143 5.44275 87.7758 5.83286 87.5578 6.24343C87.3535 6.65398 87.1834 7.07129 87.0475 7.49538C86.9116 7.9058 86.8234 8.28878 86.7831 8.64433C86.7427 8.95886 86.7365 9.32801 86.7647 9.75179C86.7928 10.1619 86.8551 10.5856 86.9517 11.0229C87.0482 11.4466 87.172 11.8633 87.3232 12.2732C87.4744 12.6831 87.6597 13.0518 87.879 13.3795C88.1121 13.6936 88.3723 13.9528 88.6598 14.1574C88.9473 14.3482 89.2756 14.4365 89.6447 14.4221C90.0548 14.3939 90.4579 14.2701 90.854 14.0506C91.1954 13.8722 91.5435 13.5981 91.8983 13.2283C92.253 12.8448 92.5596 12.3042 92.818 11.6064L95.8543 12.1544C94.9813 13.2224 94.1283 14.0239 93.2954 14.5587C92.4761 15.0934 91.7385 15.4708 91.0827 15.6908C90.3175 15.9384 89.5931 16.056 88.9095 16.0436C88.048 15.9495 87.2409 15.6913 86.4881 15.2689C85.7354 14.8465 85.085 14.3351 84.5369 13.7346C84.0026 13.1203 83.5843 12.4512 83.2821 11.7272C82.98 11.0032 82.8487 10.2925 82.8884 9.59513C82.9149 9.13023 83.0095 8.59001 83.1724 7.97446C83.3353 7.34524 83.5528 6.70225 83.825 6.04548C84.1108 5.38868 84.4514 4.74545 84.8467 4.11579C85.242 3.48613 85.6784 2.92475 86.156 2.43165C86.6335 1.92487 87.1523 1.52056 87.7123 1.21871C88.2859 0.903162 88.8803 0.7448 89.4955 0.743625ZM97.0467 2.98507C96.8415 2.9171 96.6772 2.8012 96.5539 2.63738C96.4305 2.45988 96.3617 2.2686 96.3477 2.06355C96.3473 1.85847 96.4016 1.66013 96.5106 1.46851C96.6333 1.2632 96.8175 1.09195 97.0633 0.95476C97.4594 0.735253 97.8011 0.679913 98.0884 0.78874C98.3894 0.89754 98.6085 1.06118 98.7456 1.27967C98.8142 1.38892 98.8623 1.53922 98.89 1.73057C98.9314 1.90823 98.9454 2.10644 98.9322 2.32522C98.9326 2.53029 98.9124 2.73541 98.8718 2.94057C98.8312 3.14572 98.77 3.31674 98.6882 3.45361C98.6201 3.56312 98.5383 3.67265 98.4428 3.78221C98.3609 3.87807 98.2586 3.97397 98.1357 4.06991C98.0265 4.16582 97.8968 4.25493 97.7466 4.33725L97.0082 4.27714C97.1037 4.16758 97.1923 4.07171 97.2742 3.98952C97.3561 3.89366 97.4243 3.8115 97.4788 3.74303C97.5334 3.67457 97.5879 3.61294 97.6425 3.55815C97.7244 3.46229 97.7926 3.36646 97.8471 3.27065C97.9016 3.18851 97.9493 3.10639 97.9901 3.02428C98.031 2.9285 98.0376 2.83279 98.0101 2.73713C97.9009 2.84672 97.7917 2.92212 97.6824 2.96335C97.5731 3.00457 97.4706 3.02527 97.3749 3.02546C97.2656 3.03934 97.1562 3.02588 97.0467 2.98507ZM113.285 0.841751C113.094 1.27962 112.924 1.66275 112.774 1.99117C112.625 2.31958 112.495 2.6001 112.386 2.83273C112.264 3.09273 112.162 3.32535 112.08 3.53058C112.012 3.6811 111.923 3.88635 111.815 4.14632C111.706 4.37895 111.57 4.68683 111.406 5.06996C111.256 5.43938 111.059 5.91828 110.814 6.50664C110.69 6.00101 110.539 5.55696 110.36 5.17449C110.182 4.79202 109.99 4.45742 109.784 4.17071C109.579 3.88399 109.36 3.65199 109.127 3.4747C108.908 3.28371 108.689 3.1269 108.47 3.00427C107.963 2.7318 107.43 2.58243 106.869 2.55615C106.131 2.59858 105.55 2.72274 105.127 2.92862C104.717 3.12081 104.417 3.34697 104.226 3.6071C104.035 3.85356 103.933 4.11352 103.92 4.38699C103.906 4.64678 103.941 4.86546 104.023 5.04304C104.092 5.20697 104.332 5.39792 104.742 5.61589C105.166 5.83383 105.673 6.08579 106.261 6.37178C106.863 6.64406 107.506 6.95729 108.191 7.31145C108.875 7.65194 109.505 8.03355 110.08 8.45628C110.668 8.86532 111.161 9.31555 111.559 9.80698C111.97 10.2847 112.196 10.797 112.238 11.3438C112.281 12.041 112.275 12.6699 112.222 13.2305C112.168 13.7912 111.977 14.2701 111.65 14.6672C111.323 15.0643 110.811 15.3797 110.114 15.6135C109.431 15.8472 108.481 15.9926 107.264 16.0496C106.006 16.1067 104.974 16.0403 104.167 15.8504C103.36 15.6605 102.703 15.402 102.197 15.0749C101.704 14.7477 101.334 14.3861 101.087 13.9901C100.854 13.594 100.682 13.2184 100.572 12.8631C100.462 12.4942 100.387 12.1799 100.345 11.9202C100.303 11.6468 100.235 11.4829 100.139 11.4284C100.03 11.3602 99.92 11.2989 99.8105 11.2445C99.7147 11.1899 99.6121 11.1423 99.5026 11.1015C99.3932 11.047 99.2837 10.9994 99.1742 10.9586L105.14 9.9833C104.799 10.2574 104.533 10.5108 104.342 10.7436C104.165 10.9764 104.028 11.1817 103.933 11.3596C103.824 11.5649 103.749 11.7565 103.708 11.9343C103.681 12.1257 103.743 12.3649 103.894 12.6517C104.045 12.9385 104.251 13.2184 104.511 13.4913C104.785 13.7506 105.1 13.9687 105.456 14.1458C105.812 14.3228 106.181 14.3973 106.564 14.3693C107.042 14.3273 107.431 14.2104 107.732 14.0184C108.032 13.8127 108.257 13.5594 108.407 13.2583C108.571 12.9572 108.666 12.6289 108.692 12.2734C108.719 11.9179 108.684 11.5693 108.588 11.2277C108.505 10.8724 108.368 10.5445 108.176 10.2441C107.984 9.93002 107.758 9.67068 107.498 9.4661C107.265 9.30248 106.902 9.14595 106.41 8.9965C105.931 8.84702 105.391 8.68399 104.789 8.5074C104.2 8.33079 103.592 8.12688 102.962 7.89566C102.347 7.66441 101.786 7.37837 101.279 7.03754C100.786 6.69668 100.389 6.29412 100.087 5.82985C99.7993 5.36556 99.6889 4.80522 99.756 4.14884C99.8096 3.58819 99.9864 3.12301 100.287 2.7533C100.6 2.36988 100.989 2.06836 101.454 1.84872C101.932 1.61539 102.458 1.44348 103.032 1.33301C103.62 1.22251 104.214 1.15985 104.816 1.14503C105.431 1.11652 106.032 1.1222 106.62 1.1621C107.222 1.20196 107.762 1.24878 108.241 1.30256C108.719 1.35633 109.123 1.41025 109.451 1.46431C109.793 1.50467 110.005 1.53161 110.087 1.54513C110.442 1.57179 110.798 1.56428 111.153 1.52258C111.468 1.49464 111.809 1.43246 112.178 1.33605C112.561 1.22595 112.93 1.06118 113.285 0.841751Z" fill="black"/>
</svg>
