<svg width="128" height="66" viewBox="0 0 128 66" fill="none" xmlns="http://www.w3.org/2000/svg">
<rect x="97.1245" y="0.245605" width="30" height="65" fill="#C80606"/>
<rect x="112.125" y="0.245605" width="15" height="65" fill="black"/>
<rect width="30" height="65" transform="matrix(-1 1.16415e-10 1.16415e-10 1 30.2483 0.299805)" fill="#C80606"/>
<rect width="15" height="65" transform="matrix(-1 1.19008e-10 1.19008e-10 1 15.2483 0.299805)" fill="black"/>
<rect width="33" height="65" transform="matrix(-1 1.16415e-10 1.16415e-10 1 80.248 0.293457)" fill="#C80606"/>
<rect width="10" height="65" transform="matrix(-1 1.19008e-10 1.19008e-10 1 57.2479 0.293945)" fill="black"/>
<rect width="10" height="65" transform="matrix(-1 1.19008e-10 1.19008e-10 1 80.248 0.294434)" fill="black"/>
</svg>
