<svg width="119" height="16" viewBox="0 0 119 16" fill="none" xmlns="http://www.w3.org/2000/svg">
<path d="M4.24333 1.41535C4.42884 1.39546 4.64863 1.42922 4.9027 1.51663C5.16654 1.60401 5.43534 1.73045 5.70909 1.89595C5.99261 2.06142 6.26643 2.26109 6.53055 2.49496C6.80442 2.71905 7.04902 2.96273 7.26437 3.22599C7.47972 3.48925 7.65603 3.76723 7.79331 4.05994C7.93057 4.34288 8.00434 4.62106 8.01463 4.89448C8.03532 5.49991 8.02165 6.01263 7.97362 6.43265C7.93536 6.85264 7.85793 7.219 7.74134 7.53172C7.6345 7.83466 7.48852 8.09861 7.3034 8.32358C7.12805 8.54852 6.90874 8.76867 6.64548 8.98401C6.11894 9.40494 5.50425 9.68932 4.8014 9.83715C4.10831 9.97519 3.3856 9.94727 2.63327 9.7534C2.25223 9.65647 1.90032 9.47648 1.57755 9.21342C1.26453 8.94058 0.990496 8.6286 0.75545 8.27749C0.530151 7.91659 0.353633 7.53118 0.225897 7.12127C0.0981611 6.71136 0.0339387 6.32085 0.03323 5.94976C0.0420073 5.43217 0.11427 4.91933 0.250019 4.41126C0.385749 3.89342 0.614346 3.42423 0.935809 3.0037C1.25727 2.58316 1.68629 2.23078 2.22286 1.94655C2.7594 1.65256 3.4329 1.47549 4.24333 1.41535ZM1.49374 3.67646C1.37683 3.82317 1.26975 4.00404 1.17251 4.21907C1.08501 4.42431 1.0122 4.65394 0.954094 4.90796C0.905732 5.1522 0.87692 5.40616 0.867658 5.66985C0.868161 5.93352 0.89307 6.19226 0.942383 6.44607C1.04097 6.93417 1.20774 7.32936 1.44269 7.63164C1.67763 7.92416 2.01023 8.22138 2.44049 8.52329C2.64587 8.67915 2.87557 8.79102 3.12961 8.85889C3.39341 8.92675 3.65716 8.96531 3.92085 8.97457C4.18452 8.97407 4.43351 8.95406 4.66781 8.91455C4.91187 8.87502 5.12173 8.82091 5.29738 8.75221C5.63892 8.61484 5.97045 8.35542 6.29199 7.97395C6.62329 7.59245 6.88103 7.0402 7.06519 6.31719C7.15239 5.9557 7.1615 5.609 7.09251 5.2771C7.03328 4.94518 6.92527 4.63777 6.76848 4.35487C6.62145 4.07194 6.43541 3.81351 6.21036 3.57956C5.99505 3.33583 5.77491 3.12141 5.54995 2.93629C5.32498 2.75117 5.08548 2.62468 4.83145 2.5568C4.57739 2.47916 4.32829 2.44058 4.08415 2.44104C3.84976 2.43172 3.62519 2.45168 3.41044 2.50092C3.20544 2.54038 3.02974 2.58466 2.88335 2.63377C2.61986 2.73193 2.38085 2.85934 2.1663 3.016C1.96152 3.17264 1.73733 3.39279 1.49374 3.67646ZM3.71968 3.34994C3.88569 3.34963 4.03222 3.37376 4.15927 3.42235C4.29606 3.46115 4.41823 3.50974 4.52576 3.56813C4.64306 3.6265 4.75059 3.68489 4.84836 3.7433C4.95588 3.79192 5.06334 3.81613 5.17077 3.81592L5.40514 3.81548C5.4735 3.81535 5.54187 3.8201 5.61025 3.82973C5.67861 3.8296 5.73721 3.83437 5.78606 3.84405C5.7374 3.93203 5.68872 4.01025 5.64002 4.0787C5.60107 4.13737 5.56699 4.19114 5.53779 4.24003C5.49882 4.28893 5.46961 4.33781 5.45018 4.38668C5.41121 4.43558 5.36739 4.50403 5.31873 4.59201C5.27005 4.67023 5.20677 4.77289 5.12889 4.89999C5.05101 5.02709 4.9439 5.19331 4.80758 5.39865C4.80702 5.10568 4.7724 4.87626 4.70372 4.71037C4.64481 4.54447 4.57621 4.41765 4.49792 4.3299C4.40984 4.23242 4.31206 4.16913 4.20459 4.14003C4.05806 4.12078 3.9019 4.16503 3.73609 4.27277C3.58004 4.38049 3.43383 4.52237 3.29745 4.69841C3.17083 4.87443 3.05889 5.06508 2.96163 5.27034C2.87411 5.46582 2.82075 5.65147 2.80156 5.82729C2.7823 5.97381 2.80216 6.14467 2.86113 6.33987C2.92008 6.5253 3.0083 6.70092 3.12581 6.86671C3.24331 7.0325 3.38029 7.16896 3.53675 7.27608C3.6932 7.3832 3.8642 7.43659 4.04975 7.43623C4.18645 7.42621 4.31822 7.39178 4.44506 7.33294C4.55239 7.28391 4.65967 7.21046 4.7669 7.1126C4.87414 7.01474 4.95687 6.86809 5.01509 6.67267L5.8945 6.93466C5.59242 7.27704 5.29993 7.5315 5.01705 7.69806C4.73416 7.86462 4.48048 7.98229 4.256 8.05108C4.00224 8.12969 3.75817 8.16433 3.52378 8.15501C3.23075 8.12628 2.96204 8.04378 2.71764 7.90753C2.47322 7.76151 2.2678 7.58612 2.1014 7.38136C1.93499 7.1766 1.80762 6.95712 1.71928 6.72291C1.63092 6.47894 1.59141 6.24464 1.60075 6.02001C1.61009 5.79538 1.66329 5.53161 1.76037 5.22869C1.86722 4.92575 2.01315 4.63738 2.19817 4.36359C2.38318 4.08004 2.60245 3.84036 2.85598 3.64456C3.10951 3.44876 3.39741 3.35056 3.71968 3.34994ZM13.6482 1.71965C13.834 1.85602 14.0198 1.9582 14.2055 2.02621C14.4009 2.08443 14.5767 2.12315 14.733 2.14239C14.9089 2.17135 15.0846 2.17589 15.2604 2.15603C15.4264 2.13618 15.5972 2.07726 15.7727 1.97927C15.9483 1.88128 16.1532 1.77835 16.3874 1.67048C16.6216 1.56261 16.8948 1.46931 17.2072 1.39059C17.5293 1.30208 17.9149 1.2574 18.3641 1.25654C18.5595 1.25617 18.7646 1.29484 18.9796 1.37256C19.2044 1.45025 19.4194 1.55238 19.6247 1.67894C19.83 1.79574 20.0158 1.92722 20.1821 2.07339C20.3582 2.21954 20.4903 2.36577 20.5785 2.51208C20.6764 2.65838 20.7452 2.89751 20.7849 3.22946C20.8246 3.55165 20.8399 3.90319 20.8309 4.28407C20.8218 4.66494 20.7884 5.04098 20.7305 5.41219C20.6824 5.78338 20.6097 6.08625 20.5125 6.32081C20.3957 6.52611 20.1716 6.79021 19.8402 7.11311C19.5575 7.38709 19.1334 7.73946 18.5678 8.17023C18.0022 8.601 17.2415 9.11515 16.2856 9.71268C16.8519 9.70183 17.3256 9.68628 17.7064 9.66602C18.0969 9.63598 18.4143 9.60607 18.6584 9.57631C18.9415 9.53671 19.166 9.49722 19.332 9.45784C19.4783 9.39896 19.6344 9.31566 19.8002 9.20792C19.9368 9.11 20.083 8.98277 20.239 8.82622C20.4047 8.66965 20.5654 8.46427 20.7212 8.21006C20.7515 8.73735 20.7816 9.15233 20.8114 9.45501C20.8313 9.63075 20.8462 9.78209 20.8563 9.90903C20.8662 10.0262 20.8763 10.1629 20.8863 10.3191C20.8964 10.4558 20.9015 10.6121 20.9019 10.7878C20.912 10.9636 20.927 11.1491 20.9469 11.3444C20.4584 11.2184 20.0138 11.1216 19.6133 11.054C19.2128 10.9766 18.8709 10.9236 18.5876 10.8948C18.2555 10.8564 17.9576 10.8374 17.694 10.8379C17.4205 10.8482 17.1179 10.8732 16.7859 10.9129C16.493 10.9525 16.1416 11.0118 15.7316 11.0907C15.3313 11.1598 14.8774 11.2632 14.3698 11.4009C14.3306 11.2936 14.2962 11.1862 14.2667 11.0788C14.2372 10.9617 14.2125 10.8495 14.1928 10.7421C14.1633 10.6249 14.1386 10.5078 14.1189 10.3906C14.0991 10.2735 14.0794 10.1612 14.0596 10.0538C14.0399 9.95622 14.0251 9.85371 14.0151 9.74631C14.0051 9.63891 13.9952 9.53639 13.9852 9.43875C14.7655 8.93921 15.3994 8.48878 15.887 8.08746C16.3744 7.67637 16.7595 7.32896 17.0422 7.04521C17.3638 6.71257 17.6074 6.40937 17.7729 6.13561C17.9383 5.80326 18.0743 5.43679 18.1809 5.0362C18.2876 4.6356 18.3211 4.26444 18.2813 3.92272C18.2514 3.58098 18.1337 3.30289 17.9282 3.08844C17.7227 2.86422 17.3953 2.76719 16.9462 2.79734C16.6533 2.81743 16.3751 2.9205 16.1118 3.10655C15.8583 3.29258 15.6243 3.51764 15.41 3.78172C15.1956 4.0458 15.0057 4.32937 14.8403 4.63242C14.6749 4.92571 14.5338 5.2043 14.4171 5.46819C14.3102 5.73207 14.2227 5.95196 14.1547 6.12787C14.0964 6.30377 14.0673 6.3966 14.0673 6.40636C14.0576 6.42591 14.0428 6.3527 14.023 6.18672C14.0129 6.02072 13.9978 5.81567 13.9778 5.57157C13.9676 5.31768 13.9524 5.05404 13.9324 4.78064C13.9123 4.50724 13.8924 4.27778 13.8725 4.09228C13.8624 3.94581 13.8474 3.75541 13.8274 3.52107C13.7974 3.14027 13.7377 2.5398 13.6482 1.71965ZM26.0693 1.30042C26.5185 1.2898 26.9728 1.39147 27.4322 1.60544C27.8916 1.81941 28.3073 2.14576 28.6792 2.58451C29.0511 3.01348 29.3549 3.5549 29.5905 4.20874C29.8261 4.86259 29.9497 5.62896 29.9611 6.50785C29.972 7.09376 29.9291 7.62607 29.8323 8.10477C29.7356 8.58348 29.6046 9.01341 29.4393 9.39459C29.274 9.766 29.0842 10.0984 28.8699 10.3918C28.6654 10.6754 28.4559 10.9199 28.2414 11.1254C28.0269 11.3211 27.8222 11.4778 27.6271 11.5953C27.432 11.7129 27.2661 11.7913 27.1295 11.8306C26.9538 11.8896 26.7439 11.9437 26.4999 11.993C26.2558 12.0325 26.002 12.0574 25.7383 12.0677C25.4747 12.0877 25.211 12.0736 24.9472 12.0252C24.6932 11.9867 24.4685 11.909 24.2729 11.7922C24.0774 11.6753 23.8476 11.5098 23.5835 11.2954C23.3292 11.0713 23.0845 10.769 22.8494 10.3886C22.6142 9.99844 22.4131 9.51055 22.246 8.92493C22.0788 8.33931 21.9945 7.62169 21.9928 6.77209C21.9912 5.92248 22.0874 5.16057 22.2815 4.48637C22.4852 3.81216 22.7625 3.24034 23.1131 2.77092C23.4736 2.30148 23.9026 1.94421 24.4002 1.69912C24.9075 1.44424 25.4639 1.31135 26.0693 1.30042ZM24.0143 6.75358C24.0056 7.32977 24.0408 7.83263 24.1197 8.26217C24.1987 8.69171 24.2921 9.05286 24.4001 9.34562C24.5081 9.63838 24.616 9.87255 24.7237 10.0481C24.8412 10.2139 24.9293 10.3309 24.9881 10.3992C25.0468 10.487 25.1544 10.5454 25.3107 10.5744C25.467 10.6033 25.633 10.6177 25.8088 10.6173C25.9846 10.6072 26.1554 10.5825 26.3213 10.5431C26.4873 10.494 26.6141 10.4303 26.7018 10.352C26.7506 10.303 26.8187 10.1808 26.9062 9.98537C27.0035 9.78987 27.0958 9.53578 27.1831 9.22312C27.2801 8.91043 27.3673 8.54894 27.4447 8.13863C27.522 7.71856 27.5749 7.26924 27.6032 6.79067C27.6315 6.2535 27.6306 5.76034 27.6004 5.31118C27.5702 4.85225 27.5255 4.45195 27.4663 4.11026C27.407 3.76858 27.3381 3.48551 27.2596 3.26105C27.181 3.03659 27.0977 2.88538 27.0097 2.80742C26.8825 2.69048 26.7261 2.60777 26.5405 2.55929C26.3646 2.5108 26.1839 2.49161 25.9984 2.50173C25.8226 2.51184 25.6518 2.54634 25.4859 2.60525C25.3297 2.66414 25.2078 2.7425 25.1201 2.84033C24.9447 3.03597 24.7888 3.24135 24.6525 3.45645C24.5162 3.67156 24.4044 3.93056 24.3171 4.23346C24.2298 4.53636 24.1572 4.89295 24.0994 5.30322C24.0514 5.7037 24.023 6.18715 24.0143 6.75358ZM30.8601 1.68678C31.0459 1.82315 31.2317 1.92533 31.4173 1.99334C31.6128 2.05156 31.7886 2.09029 31.9449 2.10952C32.1207 2.13848 32.2965 2.14303 32.4723 2.12316C32.6382 2.10331 32.809 2.04439 32.9846 1.9464C33.1602 1.84841 33.3651 1.74548 33.5993 1.63761C33.8334 1.52974 34.1067 1.43644 34.4191 1.35772C34.7412 1.26922 35.1268 1.22453 35.576 1.22368C35.7713 1.2233 35.9765 1.26197 36.1915 1.33969C36.4162 1.41738 36.6313 1.51951 36.8366 1.64607C37.0419 1.76287 37.2277 1.89435 37.394 2.04052C37.5701 2.18667 37.7022 2.3329 37.7903 2.47922C37.8883 2.62551 37.9571 2.86464 37.9968 3.1966C38.0365 3.51879 38.0518 3.87032 38.0428 4.2512C38.0337 4.63208 38.0003 5.00812 37.9424 5.37932C37.8942 5.75051 37.8216 6.05338 37.7244 6.28794C37.6076 6.49324 37.3835 6.75734 37.0521 7.08024C36.7694 7.35422 36.3452 7.70659 35.7797 8.13736C35.2141 8.56813 34.4533 9.08228 33.4974 9.67981C34.0638 9.66896 34.5374 9.65341 34.9183 9.63315C35.3088 9.60311 35.6262 9.57321 35.8702 9.54344C36.1534 9.50384 36.3779 9.46435 36.5438 9.42497C36.6902 9.36609 36.8463 9.28279 37.0121 9.17505C37.1486 9.07713 37.2949 8.9499 37.4508 8.79335C37.6166 8.63679 37.7773 8.4314 37.9331 8.1772C37.9634 8.70448 37.9935 9.11946 38.0233 9.42214C38.0432 9.59789 38.0581 9.74923 38.0681 9.87616C38.0781 9.99333 38.0882 10.13 38.0982 10.2863C38.1082 10.423 38.1134 10.5792 38.1138 10.755C38.1239 10.9307 38.1389 11.1163 38.1588 11.3115C37.6702 11.1855 37.2257 11.0887 36.8252 11.0211C36.4247 10.9438 36.0828 10.8907 35.7995 10.8619C35.4674 10.8235 35.1695 10.8045 34.9058 10.8051C34.6324 10.8153 34.3297 10.8403 33.9978 10.88C33.7049 10.9196 33.3534 10.9789 32.9434 11.0578C32.5432 11.1269 32.0893 11.2304 31.5817 11.368C31.5425 11.2607 31.5081 11.1533 31.4786 11.046C31.449 10.9288 31.4244 10.8166 31.4047 10.7092C31.3752 10.5921 31.3505 10.4749 31.3308 10.3578C31.311 10.2406 31.2913 10.1284 31.2715 10.021C31.2518 9.92336 31.237 9.82084 31.227 9.71344C31.217 9.60604 31.2071 9.50352 31.1971 9.40588C31.9774 8.90634 32.6113 8.45591 33.0988 8.05459C33.5863 7.6435 33.9714 7.29609 34.2541 7.01234C34.5757 6.6797 34.8193 6.3765 34.9848 6.10274C35.1501 5.7704 35.2862 5.40392 35.3928 5.00333C35.4995 4.60273 35.5329 4.23158 35.4932 3.88985C35.4633 3.54811 35.3456 3.27002 35.1401 3.05557C34.9346 2.83135 34.6072 2.73432 34.1581 2.76447C33.8651 2.78456 33.587 2.88763 33.3237 3.07368C33.0701 3.25972 32.8362 3.48477 32.6219 3.74885C32.4075 4.01294 32.2176 4.2965 32.0522 4.59955C31.8867 4.89284 31.7457 5.17143 31.629 5.43532C31.5221 5.6992 31.4346 5.91909 31.3666 6.095C31.3083 6.2709 31.2792 6.36373 31.2792 6.37349C31.2695 6.39304 31.2547 6.31983 31.2348 6.15385C31.2248 5.98785 31.2097 5.7828 31.1897 5.5387C31.1795 5.28481 31.1643 5.02117 31.1443 4.74777C31.1242 4.47437 31.1042 4.24492 31.0844 4.05941C31.0743 3.91294 31.0593 3.72254 31.0393 3.4882C31.0093 3.1074 30.9496 2.50693 30.8601 1.68678ZM39.766 1.47935C40.2349 1.56634 40.6452 1.62904 40.9968 1.66743C41.3484 1.70582 41.6463 1.73455 41.8905 1.75361C42.1738 1.7726 42.4179 1.77702 42.623 1.76686C42.8281 1.76647 43.0868 1.75133 43.3993 1.72143C43.6629 1.7014 43.9949 1.67635 44.3952 1.64629C44.8053 1.60644 45.2886 1.56157 45.8451 1.51168C45.8164 1.77541 45.7875 2.01472 45.7586 2.22962C45.7395 2.43474 45.7203 2.61056 45.701 2.75708C45.6818 2.9329 45.6675 3.08917 45.658 3.22591C45.6485 3.37241 45.6342 3.53846 45.615 3.72404C45.5958 3.89009 45.5766 4.09521 45.5576 4.33939C45.5483 4.58355 45.5391 4.86677 45.5299 5.18905C45.1576 4.57453 44.8198 4.10154 44.5165 3.77008C44.2131 3.42887 43.9489 3.17546 43.724 3.00988C43.4697 2.82482 43.24 2.71295 43.0349 2.67428L42.4343 2.67543C42.2585 2.67576 42.0681 2.68101 41.863 2.69117C41.658 2.70132 41.4725 2.72121 41.3065 2.75082L41.3717 6.20774C41.5665 5.96322 41.781 5.78215 42.0152 5.66451C42.2493 5.54688 42.4787 5.46343 42.7032 5.41418C42.957 5.36486 43.2157 5.34484 43.4794 5.3541C44.1631 5.41139 44.6907 5.52757 45.0621 5.70264C45.4433 5.87769 45.7173 6.13596 45.8839 6.47744C45.9624 6.65307 46.0264 6.9215 46.0759 7.28274C46.1352 7.63419 46.1554 8.01501 46.1367 8.4252C46.1179 8.83539 46.0552 9.24079 45.9486 9.64138C45.8419 10.0322 45.6716 10.3499 45.4377 10.5945C45.2038 10.8293 44.9746 11.0251 44.7503 11.1818C44.526 11.3287 44.3016 11.4512 44.0772 11.5493C43.8528 11.6376 43.6185 11.7015 43.3744 11.741C43.1304 11.7806 42.8716 11.8103 42.5982 11.8304C42.1589 11.8605 41.7388 11.8125 41.3382 11.6863C40.9376 11.5601 40.5857 11.3899 40.2825 11.1756C39.9794 10.9614 39.7348 10.7324 39.5488 10.4886C39.3628 10.235 39.2598 10.0057 39.2399 9.80068C39.22 9.64447 39.21 9.48824 39.2097 9.33199C39.2094 9.19527 39.214 9.05366 39.2235 8.90715C39.2428 8.76063 39.2767 8.63361 39.3253 8.5261L43.1198 8.78253C42.7489 8.90042 42.4708 9.02791 42.2855 9.16498C42.1002 9.29229 41.9686 9.41461 41.8907 9.53195C41.7933 9.66885 41.7545 9.80564 41.7743 9.94232C41.8434 10.2938 41.966 10.5816 42.1422 10.8059C42.3184 11.0204 42.5187 11.1079 42.7433 11.0684C42.8604 11.0487 42.9921 10.9703 43.1383 10.8333C43.2943 10.6865 43.4404 10.5056 43.5768 10.2904C43.7228 10.0753 43.8493 9.83582 43.9562 9.57195C44.0729 9.29829 44.1456 9.02471 44.1744 8.75122C44.2032 8.47772 44.2222 8.1896 44.2313 7.88685C44.2503 7.58408 44.24 7.30578 44.2005 7.05194C44.1609 6.79811 44.0921 6.58828 43.9942 6.42245C43.8962 6.24686 43.7544 6.15924 43.5689 6.15959C43.4127 6.17942 43.237 6.24324 43.0419 6.35103C42.8761 6.449 42.6761 6.59587 42.4421 6.79163C42.2179 6.98737 41.9645 7.27106 41.682 7.64269C41.4866 7.59424 41.3205 7.54573 41.1837 7.49716C41.0567 7.43881 40.9491 7.39018 40.8612 7.35129C40.7537 7.31243 40.6706 7.26865 40.6119 7.21993C40.5532 7.18098 40.475 7.1323 40.3772 7.07389C40.299 7.02521 40.2013 6.96681 40.0839 6.89867C39.9666 6.82077 39.8248 6.72827 39.6586 6.62116C39.6969 6.24023 39.7207 5.91792 39.73 5.65423C39.7393 5.39054 39.7486 5.17568 39.7581 5.00964L39.7571 4.52624C39.7471 4.38954 39.7419 4.18936 39.7414 3.92569C39.7409 3.70108 39.7403 3.39346 39.7396 3.00284C39.7388 2.60245 39.7476 2.09462 39.766 1.47935ZM66.3885 6.5761C66.39 7.40609 66.2915 8.16128 66.0928 8.84166C65.8941 9.52205 65.5952 10.1076 65.1961 10.5984C64.797 11.0791 64.3028 11.4501 63.7133 11.7112C63.1338 11.9723 62.454 12.1036 61.674 12.1051C60.654 12.1071 59.7936 11.8987 59.0928 11.48C58.402 11.0614 57.8709 10.4674 57.4994 9.69808C57.1279 8.92878 56.9212 8.01918 56.8792 6.96926L54.3442 6.9741L54.3537 11.9691L53.0037 11.9717L52.9833 1.26168L54.3333 1.25911L54.3419 5.7891L56.9069 5.7842C56.9751 4.83407 57.1935 4.00865 57.5622 3.30794C57.9308 2.59724 58.4548 2.05124 59.1341 1.66994C59.8133 1.27864 60.643 1.08206 61.6229 1.08019C62.6529 1.07822 63.5184 1.30657 64.2193 1.76523C64.9301 2.21387 65.4663 2.85285 65.8279 3.68216C66.1995 4.50145 66.3863 5.4661 66.3885 6.5761ZM58.2885 6.59156C58.2902 7.49156 58.4067 8.26634 58.6379 8.9159C58.8791 9.56544 59.2451 10.0647 59.7358 10.4138C60.2364 10.7629 60.8668 10.9366 61.6268 10.9352C62.4068 10.9337 63.0414 10.7575 63.5308 10.4066C64.0301 10.0556 64.3941 9.55491 64.6229 8.90447C64.8617 8.25401 64.9802 7.47879 64.9785 6.57879C64.9767 5.67879 64.8603 4.90901 64.629 4.26945C64.3978 3.61989 64.0369 3.12558 63.5462 2.78652C63.0555 2.43745 62.4202 2.26367 61.6402 2.26516C60.8702 2.26663 60.2355 2.44284 59.7362 2.79379C59.2369 3.13475 58.8678 3.63045 58.6291 4.28091C58.4003 4.92135 58.2867 5.69157 58.2885 6.59156ZM69.9047 3.89938L69.9111 7.24437L74.2761 7.23603L74.2697 3.89104L75.5897 3.88852L75.6051 11.9285L74.2851 11.931L74.2782 8.34603L69.9132 8.35437L69.9201 11.9394L68.6001 11.9419L68.5847 3.9019L69.9047 3.89938ZM79.3898 8.78627C79.39 8.87627 79.3853 9.00628 79.3756 9.1763C79.3759 9.3363 79.3712 9.51131 79.3616 9.70133C79.3519 9.88135 79.3423 10.0564 79.3326 10.2264C79.3229 10.3864 79.3131 10.5164 79.3033 10.6164L83.5955 3.87323L85.2155 3.87014L85.2308 11.9101L84.0008 11.9125L83.9918 7.17248C83.9915 7.01248 83.9911 6.80248 83.9906 6.54248C84.0001 6.28246 84.0096 6.02745 84.0191 5.77743C84.0286 5.51741 84.0382 5.32239 84.048 5.19237L79.7858 11.9205L78.1508 11.9236L78.1355 3.88366L79.3805 3.88128L79.3898 8.78627ZM91.5988 3.70795C92.5888 3.70606 93.3845 4.04954 93.9858 4.73839C94.5971 5.42723 94.9041 6.46664 94.9068 7.85664C94.9085 8.76664 94.77 9.5369 94.4912 10.1674C94.2224 10.788 93.8383 11.2587 93.3389 11.5796C92.8495 11.8906 92.2698 12.0467 91.5998 12.048C91.1898 12.0487 90.8247 11.9944 90.5045 11.8851C90.1842 11.7757 89.909 11.6362 89.6787 11.4666C89.4583 11.287 89.2679 11.0924 89.1075 10.8827L89.0175 10.8829C89.0379 11.0529 89.0583 11.2678 89.0788 11.5278C89.0993 11.7877 89.1097 12.0127 89.1101 12.2027L89.1164 15.5027L87.7964 15.5052L87.7741 3.86525L88.8541 3.86319L89.0362 4.95784L89.0962 4.95773C89.2558 4.72742 89.4454 4.51706 89.665 4.32664C89.8947 4.1362 90.1644 3.98569 90.4742 3.8751C90.7939 3.76449 91.1688 3.70877 91.5988 3.70795ZM91.361 4.8184C90.821 4.81944 90.3862 4.92527 90.0566 5.1359C89.7269 5.33653 89.4875 5.64198 89.3383 6.05227C89.1891 6.46256 89.1101 6.98271 89.1013 7.61272L89.1018 7.86772C89.103 8.52772 89.1741 9.08759 89.315 9.54732C89.4559 10.0071 89.6915 10.3566 90.022 10.596C90.3624 10.8353 90.8227 10.9544 91.4027 10.9533C91.8927 10.9524 92.2924 10.8166 92.6019 10.546C92.9214 10.2754 93.1557 9.90999 93.3048 9.4497C93.4639 8.9794 93.5429 8.44424 93.5417 7.84425C93.54 6.92425 93.3586 6.18959 92.9975 5.64028C92.6465 5.09095 92.101 4.81699 91.361 4.8184ZM100.107 3.6917C100.797 3.69038 101.388 3.83926 101.878 4.13832C102.379 4.43736 102.76 4.86164 103.021 5.41114C103.292 5.95062 103.428 6.58536 103.429 7.31536L103.431 8.11036L97.9258 8.12087C97.9475 9.03083 98.1789 9.72539 98.6198 10.2046C99.0707 10.6737 99.6961 10.9075 100.496 10.906C101.006 10.905 101.456 10.8591 101.846 10.7684C102.246 10.6676 102.655 10.5268 103.075 10.346L103.077 11.501C102.668 11.6818 102.263 11.8126 101.863 11.8934C101.463 11.9841 100.988 12.03 100.438 12.0311C99.6783 12.0325 99.003 11.8788 98.4124 11.57C97.8318 11.2611 97.3759 10.8019 97.0447 10.1926C96.7236 9.57317 96.5621 8.81848 96.5604 7.92848C96.5587 7.04848 96.7023 6.29321 96.9911 5.66265C97.2899 5.03208 97.704 4.54629 98.2333 4.20528C98.7727 3.86425 99.3973 3.69306 100.107 3.6917ZM100.094 4.77173C99.4644 4.77293 98.9648 4.97888 98.5956 5.38959C98.2363 5.79028 98.0224 6.35069 97.9538 7.07082L102.049 7.063C102.048 6.603 101.977 6.20313 101.836 5.8634C101.696 5.52367 101.48 5.25908 101.19 5.06964C100.91 4.87017 100.544 4.77087 100.094 4.77173ZM108.71 12.0153C108 12.0166 107.365 11.8729 106.804 11.5839C106.254 11.295 105.818 10.8458 105.497 10.2364C105.185 9.62701 105.029 8.84731 105.027 7.89731C105.025 6.90731 105.189 6.102 105.518 5.48137C105.846 4.86074 106.291 4.40489 106.85 4.11383C107.419 3.82274 108.064 3.67651 108.784 3.67513C109.194 3.67435 109.589 3.71859 109.969 3.80787C110.35 3.88714 110.66 3.98655 110.9 4.10609L110.497 5.20186C110.257 5.11232 109.977 5.02786 109.657 4.94847C109.336 4.86908 109.036 4.82965 108.756 4.83019C108.216 4.83122 107.772 4.94707 107.422 5.17773C107.072 5.4084 106.813 5.7489 106.644 6.19922C106.475 6.64955 106.391 7.20971 106.392 7.87971C106.393 8.51971 106.479 9.06454 106.65 9.51422C106.821 9.96389 107.077 10.3034 107.417 10.5328C107.758 10.7621 108.183 10.8763 108.693 10.8753C109.133 10.8745 109.518 10.8287 109.848 10.7381C110.187 10.6475 110.497 10.5369 110.777 10.4063L110.779 11.5763C110.509 11.7169 110.21 11.8224 109.88 11.8931C109.56 11.9737 109.17 12.0144 108.71 12.0153ZM118.229 4.9171L115.604 4.92211L115.617 11.8521L114.312 11.8546L114.299 4.9246L111.704 4.92956L111.701 3.81956L118.226 3.8071L118.229 4.9171Z" fill="black"/>
</svg>
